<svg viewBox="0 0 756.1 733.7" xmlns="http://www.w3.org/2000/svg" xmlns:xlink="http://www.w3.org/1999/xlink" id="Camada_1" overflow="hidden"><defs></defs><path d="M115.2 666.5C118.1 666.5 120.5 667.5 122.4 669.6 124.3 671.6 125.3 674.2 125.3 677.1 125.3 680 124.3 682.6 122.4 684.6 120.5 686.6 118.1 687.7 115.2 687.7L106.9 687.7 106.9 666.5 115.2 666.5ZM115.2 684.3C117.2 684.3 118.8 683.6 120.1 682.2 121.4 680.8 122 679.1 122 677 122 674.9 121.4 673.1 120.1 671.8 118.8 670.4 117.2 669.8 115.2 669.8L110.4 669.8 110.4 684.3 115.2 684.3Z"/><path d="M150.2 684.8C148.1 686.9 145.5 688 142.4 688 139.3 688 136.7 686.9 134.6 684.8 132.5 682.7 131.4 680.1 131.4 677 131.4 673.9 132.5 671.3 134.6 669.2 136.7 667.1 139.3 666 142.4 666 145.5 666 148.1 667.1 150.2 669.2 152.3 671.3 153.4 673.9 153.4 677 153.4 680.1 152.3 682.7 150.2 684.8M137.1 682.5C138.5 683.9 140.3 684.7 142.4 684.7 144.5 684.7 146.3 684 147.7 682.5 149.1 681 149.9 679.2 149.9 677.1 149.9 675 149.2 673.1 147.7 671.7 146.3 670.3 144.5 669.5 142.4 669.5 140.3 669.5 138.5 670.2 137.1 671.7 135.7 673.1 134.9 675 134.9 677.1 134.9 679.2 135.6 681.1 137.1 682.5"/><path d="M175.5 684.3 184.1 684.3 184.1 687.6 172 687.6 172 666.5 175.5 666.5 175.5 684.3Z"/><path d="M205 687.7 203.5 683.4 194.5 683.4 193 687.7 189.2 687.7 196.9 666.5 201.1 666.5 208.8 687.7 205 687.7ZM195.7 680.1 202.4 680.1 199.1 670.5 195.7 680.1Z"/><path d="M223.3 666.5C226.2 666.5 228.6 667.5 230.5 669.6 232.4 671.6 233.4 674.2 233.4 677.1 233.4 680 232.4 682.6 230.5 684.6 228.6 686.6 226.2 687.7 223.3 687.7L215 687.7 215 666.5 223.3 666.5ZM223.3 684.3C225.3 684.3 226.9 683.6 228.2 682.2 229.5 680.8 230.1 679.1 230.1 677 230.1 674.9 229.5 673.1 228.2 671.8 226.9 670.4 225.3 669.8 223.3 669.8L218.5 669.8 218.5 684.3 223.3 684.3Z"/><path d="M258.3 684.8C256.2 686.9 253.6 688 250.5 688 247.4 688 244.8 686.9 242.7 684.8 240.6 682.7 239.5 680.1 239.5 677 239.5 673.9 240.6 671.3 242.7 669.2 244.8 667.1 247.4 666 250.5 666 253.6 666 256.2 667.1 258.3 669.2 260.4 671.3 261.5 673.9 261.5 677 261.5 680.1 260.4 682.7 258.3 684.8M245.1 682.5C246.5 683.9 248.3 684.7 250.4 684.7 252.5 684.7 254.3 684 255.7 682.5 257.1 681 257.9 679.2 257.9 677.1 257.9 675 257.2 673.1 255.7 671.7 254.3 670.3 252.5 669.5 250.4 669.5 248.3 669.5 246.5 670.2 245.1 671.7 243.7 673.1 242.9 675 242.9 677.1 242.9 679.2 243.6 681.1 245.1 682.5"/><path d="M288.4 666.5C291.3 666.5 293.7 667.5 295.6 669.6 297.5 671.6 298.5 674.2 298.5 677.1 298.5 680 297.5 682.6 295.6 684.6 293.7 686.6 291.3 687.7 288.4 687.7L280.1 687.7 280.1 666.5 288.4 666.5ZM288.4 684.3C290.4 684.3 292 683.6 293.3 682.2 294.6 680.8 295.2 679.1 295.2 677 295.2 674.9 294.6 673.1 293.3 671.8 292 670.4 290.4 669.8 288.4 669.8L283.6 669.8 283.6 684.3 288.4 684.3Z"/><path d="M323.4 684.8C321.3 686.9 318.7 688 315.6 688 312.5 688 309.9 686.9 307.8 684.8 305.7 682.7 304.6 680.1 304.6 677 304.6 673.9 305.7 671.3 307.8 669.2 309.9 667.1 312.5 666 315.6 666 318.7 666 321.3 667.1 323.4 669.2 325.5 671.3 326.6 673.9 326.6 677 326.6 680.1 325.5 682.7 323.4 684.8M310.2 682.5C311.6 683.9 313.4 684.7 315.5 684.7 317.6 684.7 319.4 684 320.8 682.5 322.2 681 323 679.2 323 677.1 323 675 322.3 673.1 320.8 671.7 319.4 670.3 317.6 669.5 315.5 669.5 313.4 669.5 311.6 670.2 310.2 671.7 308.8 673.1 308 675 308 677.1 308 679.2 308.7 681.1 310.2 682.5"/><path d="M353 666.5C355 666.5 356.7 667.2 358 668.5 359.3 669.8 360 671.5 360 673.5 360 675.5 359.3 677.1 358 678.4 356.7 679.7 355 680.4 353 680.4L348.7 680.4 348.7 687.7 345.2 687.7 345.2 666.5 353 666.5ZM353 677.1C354 677.1 354.9 676.8 355.5 676.1 356.2 675.4 356.5 674.5 356.5 673.5 356.5 672.5 356.2 671.5 355.5 670.9 354.8 670.2 354 669.9 353 669.9L348.7 669.9 348.7 677.3 353 677.3Z"/><path d="M384.5 684.8C382.4 686.9 379.8 688 376.7 688 373.6 688 371 686.9 368.9 684.8 366.8 682.7 365.7 680.1 365.7 677 365.7 673.9 366.8 671.3 368.9 669.2 371 667.1 373.6 666 376.7 666 379.8 666 382.4 667.1 384.5 669.2 386.6 671.3 387.7 673.9 387.7 677 387.7 680.1 386.6 682.7 384.5 684.8M371.4 682.5C372.8 683.9 374.6 684.7 376.7 684.7 378.8 684.7 380.6 684 382 682.5 383.4 681.1 384.2 679.2 384.2 677.1 384.2 675 383.5 673.1 382 671.7 380.6 670.3 378.8 669.5 376.7 669.5 374.6 669.5 372.8 670.2 371.4 671.7 370 673.1 369.2 675 369.2 677.1 369.2 679.2 369.9 681.1 371.4 682.5"/><path d="M399.3 687.6 391.9 666.5 395.8 666.5 401.4 683.4 407 666.5 410.8 666.5 403.5 687.6 399.3 687.6Z"/><path d="M433.8 684.8C431.7 686.9 429.1 688 426 688 422.9 688 420.3 686.9 418.2 684.8 416.1 682.7 415 680.1 415 677 415 673.9 416.1 671.3 418.2 669.2 420.3 667.1 422.9 666 426 666 429.1 666 431.7 667.1 433.8 669.2 435.9 671.3 437 673.9 437 677 437 680.1 435.9 682.7 433.8 684.8M420.7 682.5C422.1 683.9 423.9 684.7 426 684.7 428.1 684.7 429.9 684 431.3 682.5 432.7 681.1 433.5 679.2 433.5 677.1 433.5 675 432.8 673.1 431.3 671.7 429.9 670.3 428.1 669.5 426 669.5 423.9 669.5 422.1 670.2 420.7 671.7 419.3 673.1 418.5 675 418.5 677.1 418.5 679.2 419.2 681.1 420.7 682.5"/><path d="M468.1 676.7C469 677.2 469.8 677.9 470.3 678.7 470.8 679.5 471.1 680.5 471.1 681.6 471.1 683.3 470.5 684.8 469.3 685.9 468.1 687.1 466.6 687.6 464.8 687.6L455.7 687.6 455.7 666.4 464.1 666.4C465.8 666.4 467.3 667 468.5 668.1 469.7 669.2 470.3 670.6 470.3 672.3 470.3 674 469.6 675.6 468.2 676.6M464.1 669.7 459.2 669.7 459.2 675.3 464.1 675.3C464.9 675.3 465.5 675 466 674.5 466.5 674 466.8 673.3 466.8 672.5 466.8 671.7 466.5 671.1 466 670.5 465.5 670 464.8 669.7 464.1 669.7M464.7 684.4C465.5 684.4 466.2 684.1 466.7 683.5 467.3 682.9 467.5 682.2 467.5 681.4 467.5 680.6 467.2 679.9 466.7 679.3 466.1 678.7 465.5 678.4 464.7 678.4L459.1 678.4 459.1 684.3 464.7 684.3Z"/><path d="M490.1 687.6 485.6 679.9 481.5 679.9 481.5 687.6 478 687.6 478 666.4 486.5 666.4C488.4 666.4 490 667.1 491.3 668.4 492.6 669.7 493.3 671.3 493.3 673.2 493.3 675.1 492.9 675.8 492.1 676.9 491.3 678 490.3 678.8 489.1 679.3L493.9 687.5 490.1 687.5ZM481.5 669.7 481.5 676.8 486.5 676.8C487.4 676.8 488.2 676.5 488.9 675.8 489.5 675.1 489.9 674.3 489.9 673.3 489.9 672.3 489.6 671.5 488.9 670.8 488.3 670.1 487.5 669.8 486.5 669.8L481.5 669.8Z"/><path d="M514.3 687.7 512.8 683.4 503.8 683.4 502.3 687.7 498.5 687.7 506.2 666.5 510.4 666.5 518.1 687.7 514.3 687.7ZM505 680.1 511.7 680.1 508.4 670.5 505 680.1Z"/><path d="M530.8 688C528.8 688 527 687.5 525.6 686.6 524.2 685.7 523.2 684.4 522.6 682.8L525.6 681C526.4 683.4 528.2 684.6 530.9 684.6 533.6 684.6 533.2 684.3 533.9 683.8 534.6 683.3 534.9 682.6 534.9 681.8 534.9 681 534.5 680.3 533.8 679.8 533.1 679.3 531.8 678.8 530 678.3 529 677.9 528.2 677.6 527.6 677.4 527 677.2 526.3 676.8 525.6 676.3 524.9 675.8 524.4 675.2 524 674.5 523.7 673.8 523.5 673 523.5 672 523.5 670.1 524.2 668.6 525.5 667.5 526.8 666.4 528.4 665.9 530.3 665.9 532.2 665.9 533.5 666.3 534.7 667.1 536 667.9 537 669.1 537.6 670.5L534.7 672.2C533.8 670.2 532.3 669.2 530.3 669.2 528.3 669.2 528.5 669.4 527.9 669.9 527.3 670.4 527 671 527 671.8 527 672.6 527.3 673.2 527.9 673.6 528.5 674 529.6 674.5 531.3 675 532.1 675.3 532.7 675.5 533 675.7 533.4 675.8 533.9 676 534.6 676.3 535.3 676.6 535.8 676.8 536.1 677.1 536.4 677.4 536.8 677.7 537.2 678.2 537.6 678.6 537.9 679.1 538 679.7 538.2 680.3 538.2 680.9 538.2 681.6 538.2 683.5 537.5 685 536.1 686.2 534.7 687.3 532.9 687.9 530.7 687.9"/><rect x="545.1" y="666.5" width="3.5" height="21.2"/><path d="M560.2 684.3 568.8 684.3 568.8 687.6 556.7 687.6 556.7 666.5 560.2 666.5 560.2 684.3Z"/><path d="M578.8 684.3 588.2 684.3 588.2 687.6 575.3 687.6 575.3 666.5 588.1 666.5 588.1 669.8 578.8 669.8 578.8 675.3 587.3 675.3 587.3 678.6 578.8 678.6 578.8 684.3Z"/><rect x="595.3" y="666.5" width="3.5" height="21.2"/><path d="M619 687.6 614.5 679.9 610.4 679.9 610.4 687.6 606.9 687.6 606.9 666.4 615.4 666.4C617.3 666.4 618.9 667.1 620.2 668.4 621.5 669.7 622.2 671.3 622.2 673.2 622.2 675.1 621.8 675.8 621 676.9 620.2 678 619.2 678.8 618 679.3L622.8 687.5 619 687.5ZM610.4 669.7 610.4 676.8 615.4 676.8C616.3 676.8 617.1 676.5 617.8 675.8 618.4 675.1 618.8 674.3 618.8 673.3 618.8 672.3 618.5 671.5 617.8 670.8 617.2 670.1 616.4 669.8 615.4 669.8L610.4 669.8Z"/><path d="M647 684.8C644.9 686.9 642.3 688 639.2 688 636.1 688 633.5 686.9 631.4 684.8 629.3 682.7 628.2 680.1 628.2 677 628.2 673.9 629.3 671.3 631.4 669.2 633.5 667.1 636.1 666 639.2 666 642.3 666 644.9 667.1 647 669.2 649.1 671.3 650.2 673.9 650.2 677 650.2 680.1 649.1 682.7 647 684.8M633.9 682.5C635.3 683.9 637.1 684.7 639.2 684.7 641.3 684.7 643.1 684 644.5 682.5 645.9 681.1 646.7 679.2 646.7 677.1 646.7 675 646 673.1 644.5 671.7 643.1 670.3 641.3 669.5 639.2 669.5 637.1 669.5 635.3 670.2 633.9 671.7 632.5 673.1 631.7 675 631.7 677.1 631.7 679.2 632.4 681.1 633.9 682.5"/><path d="M236.2 438.9 236.2 441.1C236.2 449.8 230.4 455.5 222.6 455.5 214.8 455.5 207.9 449.1 207.9 440.9 207.9 432.7 214.4 426.2 222.6 426.2 230.8 426.2 232.5 428.8 235.1 433.2L228.7 437C227.5 434.8 225.2 433.5 222.6 433.5 218.5 433.5 215.6 436.7 215.6 441 215.6 445.3 218.5 448.2 222.8 448.2 227.1 448.2 227.7 446.7 228.3 444.9L220.8 444.9 220.8 438.9 236.4 438.9Z"/><path d="M245.5 440.8C245.5 432.6 252 426.1 260.2 426.1 268.4 426.1 274.8 432.6 274.8 440.8 274.8 449 268.3 455.5 260.2 455.5 252.1 455.5 245.5 449 245.5 440.8M266.7 440.8C266.7 436.8 263.9 433.9 260.2 433.9 256.5 433.9 253.6 436.9 253.6 440.8 253.6 444.7 256.5 447.7 260.2 447.7 263.9 447.7 266.7 444.7 266.7 440.8"/><path d="M310.2 426.8 299.2 454.8 291.7 454.8 280.9 426.8 289 426.8 295.5 444.1 302.1 426.8 310.2 426.8Z"/><path d="M326.6 433.7 326.6 437.8 334.8 437.8 334.8 443.8 326.6 443.8 326.6 448 339 448 339 454.8 319 454.8 319 426.8 339 426.8 339 433.7 326.6 433.7Z"/><path d="M360.3 445.1 357.1 445.1 357.1 454.8 349.6 454.8 349.6 426.8 363.1 426.8C368.6 426.8 372.8 430.7 372.8 435.9 372.8 441.1 370.9 442.4 367.9 444L374.1 454.8 365.7 454.8 360.1 445.1ZM357.1 438.8 362.4 438.8C364.2 438.8 365.3 437.6 365.3 436.2 365.3 434.8 364.2 433.6 362.4 433.6L357.1 433.6 357.1 438.8Z"/><path d="M408.6 426.8 408.6 454.8 402.2 454.8 391 440.1 391 454.8 383.5 454.8 383.5 426.8 389.8 426.8 401.2 441.6 401.2 426.8 408.6 426.8Z"/><path d="M418.4 440.8C418.4 432.6 424.9 426.1 433.1 426.1 441.3 426.1 447.7 432.6 447.7 440.8 447.7 449 441.2 455.5 433.1 455.5 425 455.5 418.4 449 418.4 440.8M439.6 440.8C439.6 436.8 436.8 433.9 433.1 433.9 429.4 433.9 426.5 436.9 426.5 440.8 426.5 444.7 429.4 447.7 433.1 447.7 436.8 447.7 439.6 444.7 439.6 440.8"/><path d="M509.9 440.8C509.9 448.8 503.5 454.8 495 454.8L483.6 454.8 483.6 426.8 495 426.8C503.5 426.8 509.9 432.8 509.9 440.8M502.1 440.8C502.1 436.7 499.1 434.1 494.6 434.1L491.2 434.1 491.2 447.5 494.6 447.5C499 447.5 502.1 444.9 502.1 440.8"/><path d="M516.8 440.8C516.8 432.6 523.3 426.1 531.5 426.1 539.7 426.1 546.1 432.6 546.1 440.8 546.1 449 539.6 455.5 531.5 455.5 523.4 455.5 516.8 449 516.8 440.8M538 440.8C538 436.8 535.2 433.9 531.5 433.9 527.8 433.9 524.9 436.9 524.9 440.8 524.9 444.7 527.8 447.7 531.5 447.7 535.2 447.7 538 444.7 538 440.8"/><g><path d="M406.1 633.6 406.1 590.7 343.9 486.2 259.5 628.1 269.6 611.2 284.2 633.6 256.3 633.6 290.2 633.6C290.2 603.9 314.3 579.8 344 579.8 373.7 579.8 397.8 603.9 397.8 633.6L431.7 633.6 406.2 633.6Z" fill="#FFD000"/><path d="M397.7 633.6C397.7 603.9 373.6 579.8 343.9 579.8 314.2 579.8 290.1 603.9 290.1 633.6L397.7 633.6Z" fill="#183EFF"/><path d="M246.2 575.2 188.3 486.2 188.3 575.2 246.2 575.2Z" fill="#FFD000"/><rect x="76.5" y="545.4" width="51" height="88.3" fill="#FFD000"/><rect x="577.6" y="486.2" width="51" height="97.9" fill="#FFD000"/><rect x="628.6" y="584.1" width="51" height="49.5" fill="#183EFF"/><path d="M256.3 633.6 269.6 611.2 246.2 575.2 188.3 575.2 188.3 633.6 256.3 633.6Z" fill="#00D000"/><rect x="518.1" y="486.2" width="51" height="147.4" fill="#00D000"/><path d="M139.3 486.2 127.5 486.2 127.5 545.4 139.3 545.4C155.6 545.4 168.9 532.2 168.9 515.8 168.9 499.4 155.7 486.2 139.3 486.2" fill="#183EFF"/><rect x="454.3" y="486.2" width="55.2" height="53.6" fill="#183EFF"/><path d="M471.2 539.8 454.4 539.8 454.4 633.6 471.2 633.6C497.1 633.6 518.1 612.6 518.1 586.7 518.1 560.8 497.1 539.8 471.2 539.8" fill="#FFD000"/><path d="M438.9 486.2C420.8 486.2 406.1 500.9 406.1 519 406.1 537.1 420.8 551.8 438.9 551.8L454.3 551.8 454.3 486.3 438.9 486.3Z" fill="#00D000"/><path d="M144.2 545.4 127.4 545.4 127.4 633.7 144.2 633.7C168.6 633.7 188.3 613.9 188.3 589.6 188.3 565.3 168.5 545.5 144.2 545.5" fill="#FF0000"/><path d="M246.2 486.2 188.3 486.2 246.2 575.2C270.8 575.2 290.7 555.3 290.7 530.7 290.7 506.1 270.8 486.2 246.2 486.2" fill="#183EFF"/><rect x="76.5" y="486.2" width="51" height="59.2" fill="#00D000"/><path d="M406.1 551.7 406.1 590.7 431.6 633.6 454.3 633.6 454.3 551.7 406.1 551.7Z" fill="#FF0000"/><path d="M406.1 590.7 406.1 633.6 431.6 633.6 406.1 590.7Z" fill="#3C3C3C"/><rect x="577.6" y="584.1" width="51" height="49.5" fill="#3C3C3C"/><path d="M256.3 633.6 284.2 633.6 269.6 611.2 256.3 633.6Z" fill="#3C3C3C"/></g><g><g><path d="M202 268.3 202 247.2 193.3 263.2 190.5 263.2 181.7 247.2 181.7 268.3 177 268.3 177 238.6 182 238.6 191.8 256.7 201.6 238.6 206.6 238.6 206.6 268.3 201.9 268.3Z"/><path d="M221.7 268.3 221.7 238.6 226.4 238.6 226.4 268.3 221.7 268.3Z"/><path d="M246.1 247.3 246.1 268.3 241.4 268.3 241.4 238.6 245.2 238.6 262 260 262 238.6 266.7 238.6 266.7 268.2 262.6 268.2 246 247.2Z"/><path d="M281.9 268.3 281.9 238.6 286.6 238.6 286.6 268.3 281.9 268.3Z"/><path d="M319.1 245.6C318.5 244.9 317.4 244.2 315.8 243.6 314.3 242.9 312.7 242.6 311 242.6 309.3 242.6 307.6 243 306.7 243.7 305.7 244.4 305.3 245.4 305.3 246.7 305.3 248 305.3 247.5 305.5 247.8 305.6 248.1 305.7 248.4 305.9 248.7 306.1 249 306.3 249.2 306.7 249.4 307.1 249.6 307.4 249.8 307.7 250 308 250.2 308.5 250.3 309.1 250.5 309.7 250.7 310.2 250.8 310.7 251 311.2 251.1 311.9 251.3 312.7 251.5 314 251.8 315.1 252.1 316 252.4 316.9 252.7 317.8 253.1 318.7 253.6 319.6 254.1 320.2 254.6 320.8 255.2 321.4 255.8 321.7 256.5 322 257.3 322.3 258.1 322.5 259.1 322.5 260.1 322.5 261.1 322.3 262.4 321.9 263.3 321.5 264.2 321 265.1 320.4 265.7 319.8 266.3 319 266.9 318 267.3 317.1 267.7 316.1 268.1 315 268.3 313.9 268.5 312.8 268.6 311.6 268.6 309.3 268.6 307.2 268.3 305.1 267.6 303 266.9 301.1 265.9 299.4 264.6L301.5 260.6C302.4 261.5 303.8 262.3 305.7 263.2 307.6 264 309.6 264.4 311.7 264.4 313.8 264.4 315 264.1 316 263.4 317 262.7 317.5 261.8 317.5 260.6 317.5 259.4 317.5 259.7 317.3 259.3 317.1 258.9 316.9 258.5 316.5 258.2 316.1 257.9 315.8 257.6 315.4 257.4 315 257.2 314.5 256.9 313.7 256.7 313 256.5 312.3 256.3 311.7 256.1 311.1 255.9 310.3 255.7 309.3 255.5 307.7 255.1 306.4 254.7 305.4 254.3 304.4 253.9 303.5 253.4 302.7 252.8 301.9 252.2 301.4 251.5 301 250.6 300.6 249.8 300.5 248.8 300.5 247.6 300.5 246.4 300.8 244.9 301.3 243.7 301.8 242.5 302.6 241.6 303.6 240.9 304.6 240.2 305.7 239.6 307 239.2 308.3 238.8 309.7 238.6 311.3 238.6 314.9 238.6 318.3 239.7 321.3 241.9L319.2 245.7Z"/><path d="M357.2 242.7 347.3 242.7 347.3 268.2 342.6 268.2 342.6 242.7 332.7 242.7 332.7 238.6 357.2 238.6 357.2 242.7Z"/><path d="M389.9 264.1 389.9 268.2 369.6 268.2 369.6 238.5 389.6 238.5 389.6 242.6 374.3 242.6 374.3 251 387.5 251 387.5 254.9 374.3 254.9 374.3 264 390 264ZM381.6 235.5 378.6 234.6 381 230 385.4 230 381.6 235.5Z"/><path d="M403.1 268.3 403.1 238.6 416 238.6C417.3 238.6 418.5 238.9 419.7 239.4 420.9 239.9 421.8 240.7 422.6 241.6 423.4 242.5 424 243.5 424.5 244.7 425 245.9 425.2 247 425.2 248.2 425.2 250.2 424.7 252 423.6 253.7 422.5 255.3 421.1 256.4 419.4 257L426.4 268.3 421.1 268.3 414.7 258 407.8 258 407.8 268.3 403.1 268.3ZM407.8 253.8 416 253.8C417.3 253.8 418.4 253.3 419.2 252.2 420 251.1 420.5 249.8 420.5 248.3 420.5 246.8 420 245.5 419.1 244.4 418.1 243.3 417 242.8 415.8 242.8L407.9 242.8 407.9 253.9Z"/><path d="M439.1 268.3 439.1 238.6 443.8 238.6 443.8 268.3 439.1 268.3Z"/><path d="M456.9 253.4C456.9 251.4 457.3 249.5 458 247.7 458.7 245.9 459.7 244.3 461 242.9 462.3 241.5 463.8 240.4 465.6 239.6 467.4 238.8 469.3 238.4 471.3 238.4 473.3 238.4 475.3 238.8 477.1 239.7 478.9 240.6 480.4 241.7 481.6 243.1 482.8 244.5 483.8 246.1 484.4 247.9 485.1 249.7 485.4 251.5 485.4 253.4 485.4 255.3 485 257.2 484.3 259.1 483.6 260.9 482.6 262.5 481.4 263.9 480.2 265.3 478.7 266.4 476.9 267.2 475.1 268 473.2 268.4 471.2 268.4 469.2 268.4 468 268.1 466.5 267.6 465 267.1 463.7 266.3 462.6 265.3 461.5 264.3 460.5 263.2 459.6 262 458.8 260.7 458.1 259.4 457.7 257.9 457.3 256.4 457 254.9 457 253.4ZM471.1 264.2C472.5 264.2 473.9 263.9 475.1 263.3 476.3 262.7 477.3 261.8 478.1 260.8 478.9 259.8 479.5 258.6 479.9 257.3 480.3 256 480.5 254.7 480.5 253.4 480.5 252.1 480.3 250.6 479.8 249.3 479.3 248 478.7 246.9 477.9 245.9 477.1 244.9 476.1 244.1 474.9 243.5 473.7 242.9 472.4 242.6 471 242.6 469.6 242.6 468.2 242.9 467 243.5 465.8 244.1 464.8 244.9 464 246 463.2 247 462.6 248.2 462.2 249.4 461.8 250.7 461.5 252 461.5 253.3 461.5 254.6 461.9 256.9 462.6 258.6 463.4 260.2 464.5 261.6 465.9 262.6 467.4 263.6 469 264.2 470.9 264.2Z"/><path d="M517.2 268.3 517.2 238.6 527.7 238.6C530 238.6 532.1 239 534 239.8 535.9 240.6 537.4 241.6 538.6 243 539.8 244.4 540.7 245.9 541.3 247.7 541.9 249.5 542.2 251.4 542.2 253.5 542.2 258 540.9 261.6 538.3 264.3 535.7 267 532.2 268.4 527.8 268.4L517.3 268.4ZM527.7 242.7 521.8 242.7 521.8 264.1 527.7 264.1C529.7 264.1 531.5 263.6 533 262.7 534.5 261.8 535.6 260.5 536.3 258.9 537 257.3 537.4 255.5 537.4 253.4 537.4 250.2 536.5 247.7 534.8 245.7 533.1 243.7 530.7 242.8 527.7 242.8Z"/><path d="M563 238.6 567.4 238.6 578.9 268.3 574 268.3 570.9 260.2 559.5 260.2 556.4 268.3 551.4 268.3 563 238.6ZM569.9 256.7 565.1 243.7 560.2 256.7 569.9 256.7Z"/></g><g><path d="M260 326.9 260 297.2 280.3 297.2 280.3 304.3 268.1 304.3 268.1 309.2 278.1 309.2 278.1 315.8 268.1 315.8 268.1 326.8 260 326.8Z"/><path d="M296.8 297.3 305.9 297.3 315.3 327 307 327 305.2 321.2 297.3 321.2 295.5 327 287.2 327 296.7 297.3ZM304 315.7 301.4 305.3 298.6 315.7 304 315.7Z"/><path d="M324.7 320.9 338.2 304.4 325.4 304.4 325.4 297.3 348 297.3 348 303.4 335.4 319.9 348.3 319.9 348.3 327 324.8 327 324.8 320.9Z"/><path d="M381.6 319.8 381.6 326.9 360.5 326.9 360.5 297.2 381.3 297.2 381.3 304.3 368.7 304.3 368.7 308.5 379.5 308.5 379.5 315.1 368.7 315.1 368.7 319.8 381.7 319.8Z"/><path d="M401.9 312.3 401.9 326.9 393.8 326.9 393.8 297.2 400.1 297.2 412 312.3 412 297.2 420.1 297.2 420.1 326.9 413.6 326.9 401.8 312.3Z"/><path d="M433.6 326.9 433.6 297.2 445 297.2C447.4 297.2 449.6 297.6 451.5 298.4 453.4 299.2 455 300.2 456.2 301.6 457.4 303 458.3 304.5 459 306.3 459.6 308.1 460 310 460 312.1 460 316.6 458.6 320.2 455.9 322.9 453.2 325.6 449.6 327 445 327L433.6 327ZM445 304.4 441.7 304.4 441.7 319.9 445 319.9C447.1 319.9 448.7 319.2 449.9 317.7 451.1 316.3 451.7 314.4 451.7 312.1 451.7 309.8 451.1 307.9 449.9 306.5 448.7 305.1 447.1 304.4 445 304.4Z"/><path d="M477.5 297.3 486.6 297.3 496 327 487.7 327 485.9 321.2 478 321.2 476.2 327 467.9 327 477.4 297.3ZM484.7 315.7 482.1 305.3 479.3 315.7 484.7 315.7Z"/></g><g><path d="M188.2 58C187.6 57.3 186.5 56.6 184.9 56 183.4 55.3 181.8 55 180.1 55 178.4 55 176.7 55.4 175.8 56.1 174.8 56.8 174.4 57.8 174.4 59.1 174.4 60.4 174.4 59.9 174.6 60.2 174.7 60.5 174.8 60.8 175 61.1 175.2 61.4 175.4 61.6 175.8 61.8 176.2 62 176.5 62.2 176.8 62.4 177.1 62.6 177.6 62.7 178.2 62.9 178.8 63.1 179.3 63.2 179.8 63.4 180.3 63.5 181 63.7 181.8 63.9 183.1 64.2 184.2 64.5 185.1 64.8 186 65.1 186.9 65.5 187.8 66 188.7 66.5 189.3 67 189.9 67.6 190.5 68.2 190.8 68.9 191.1 69.7 191.4 70.5 191.6 71.5 191.6 72.5 191.6 73.5 191.4 74.8 191 75.7 190.6 76.6 190.1 77.5 189.5 78.1 188.9 78.7 188.1 79.3 187.1 79.7 186.2 80.1 185.2 80.5 184.1 80.7 183 80.9 181.9 81 180.7 81 178.4 81 176.3 80.7 174.2 80 172.1 79.3 170.2 78.3 168.5 77L170.6 73C171.5 73.9 172.9 74.7 174.8 75.6 176.7 76.4 178.7 76.8 180.8 76.8 182.9 76.8 184.1 76.5 185.1 75.8 186.1 75.1 186.6 74.2 186.6 73 186.6 71.8 186.6 72.1 186.4 71.7 186.2 71.3 186 70.9 185.6 70.6 185.2 70.3 184.9 70 184.5 69.8 184.1 69.6 183.6 69.3 182.8 69.1 182.1 68.9 181.4 68.7 180.8 68.5 180.2 68.3 179.4 68.1 178.4 67.9 176.8 67.5 175.5 67.1 174.5 66.7 173.5 66.3 172.6 65.8 171.8 65.2 171 64.6 170.5 63.9 170.1 63 169.7 62.2 169.6 61.2 169.6 60 169.6 58.8 169.9 57.3 170.4 56.1 170.9 54.9 171.7 54 172.7 53.3 173.7 52.6 174.8 52 176.1 51.6 177.4 51.2 178.8 51 180.4 51 184 51 187.4 52.1 190.4 54.3L188.3 58.1Z"/><path d="M224.9 76.5 224.9 80.6 204.6 80.6 204.6 50.9 224.6 50.9 224.6 55 209.3 55 209.3 63.4 222.5 63.4 222.5 67.3 209.3 67.3 209.3 76.4 225 76.4Z"/><path d="M250.6 50.8C253.2 50.8 255.5 51.4 257.4 52.6 259.3 53.8 260.8 55.3 261.8 57.3L258.1 59.8C257.7 58.9 257.2 58.2 256.6 57.6 256 57 255.3 56.5 254.6 56.1 253.9 55.7 253.2 55.5 252.5 55.3 251.8 55.1 251.1 55.1 250.3 55.1 249.1 55.1 248 55.3 247 55.7 246 56.1 245.1 56.7 244.3 57.4 243.5 58.1 242.9 58.9 242.4 59.8 241.9 60.7 241.5 61.7 241.2 62.7 240.9 63.7 240.8 64.8 240.8 65.8 240.8 67.7 241.2 69.5 242 71.2 242.8 72.9 244 74.2 245.4 75.2 246.9 76.2 248.5 76.7 250.3 76.7 252.1 76.7 252.3 76.5 253.3 76.2 254.3 75.9 255.2 75.3 256.1 74.6 257 73.8 257.7 72.9 258.2 71.8L262.1 74C261.5 75.4 260.6 76.7 259.2 77.7 257.9 78.8 256.4 79.6 254.9 80.1 253.4 80.6 251.7 80.9 250.1 80.9 248.5 80.9 246.2 80.5 244.4 79.6 242.6 78.7 241.1 77.6 239.9 76.1 238.7 74.7 237.7 73 237 71.2 236.3 69.4 235.9 67.5 235.9 65.6 235.9 63.7 236.1 62.7 236.5 61.3 236.9 59.9 237.5 58.5 238.3 57.3 239.1 56 240.1 54.9 241.2 54 242.3 53 243.7 52.3 245.2 51.7 246.7 51.1 248.4 50.9 250.2 50.9Z"/><path d="M275 80.6 275 50.9 287.9 50.9C289.2 50.9 290.4 51.2 291.6 51.7 292.8 52.2 293.7 53 294.5 53.9 295.3 54.8 295.9 55.8 296.4 57 296.9 58.2 297.1 59.3 297.1 60.5 297.1 62.5 296.6 64.3 295.5 66 294.4 67.6 293 68.7 291.3 69.3L298.3 80.6 293 80.6 286.6 70.3 279.7 70.3 279.7 80.6 275 80.6ZM279.7 66.2 287.9 66.2C289.2 66.2 290.3 65.7 291.1 64.6 291.9 63.5 292.4 62.2 292.4 60.7 292.4 59.2 291.9 57.9 291 56.8 290 55.7 288.9 55.2 287.7 55.2L279.8 55.2 279.8 66.3Z"/><path d="M331.3 76.5 331.3 80.6 311 80.6 311 50.9 331 50.9 331 55 315.7 55 315.7 63.4 328.9 63.4 328.9 67.3 315.7 67.3 315.7 76.4 331.4 76.4Z"/><path d="M366.3 55.1 356.4 55.1 356.4 80.6 351.7 80.6 351.7 55.1 341.8 55.1 341.8 51 366.3 51 366.3 55.1Z"/><path d="M387.2 51 391.6 51 403.1 80.7 398.2 80.7 395.1 72.6 383.7 72.6 380.6 80.7 375.6 80.7 387.2 51ZM394.1 69.1 389.3 56.1 384.4 69.1 394.1 69.1Z"/><path d="M415.2 80.6 415.2 50.9 428.1 50.9C429.4 50.9 430.6 51.2 431.8 51.7 433 52.2 433.9 53 434.7 53.9 435.5 54.8 436.1 55.8 436.6 57 437.1 58.2 437.3 59.3 437.3 60.5 437.3 62.5 436.8 64.3 435.7 66 434.6 67.6 433.2 68.7 431.5 69.3L438.5 80.6 433.2 80.6 426.8 70.3 419.9 70.3 419.9 80.6 415.2 80.6ZM419.8 66.2 428 66.2C429.3 66.2 430.4 65.7 431.2 64.6 432 63.5 432.5 62.2 432.5 60.7 432.5 59.2 432 57.9 431.1 56.8 430.1 55.7 429 55.2 427.8 55.2L419.9 55.2 419.9 66.3Z"/><path d="M451.1 80.6 451.1 50.9 455.8 50.9 455.8 80.6 451.1 80.6Z"/><path d="M479.4 51 483.8 51 495.3 80.7 490.4 80.7 487.3 72.6 475.9 72.6 472.8 80.7 467.8 80.7 479.4 51ZM486.4 69.1 481.6 56.1 476.7 69.1 486.4 69.1Z"/><path d="M526.1 80.6 526.1 50.9 536.6 50.9C538.9 50.9 541 51.3 542.9 52.1 544.8 52.9 546.3 53.9 547.5 55.3 548.7 56.7 549.6 58.2 550.2 60 550.8 61.8 551.1 63.7 551.1 65.8 551.1 70.3 549.8 73.9 547.2 76.6 544.6 79.3 541.1 80.7 536.7 80.7L526.2 80.7ZM536.6 55.1 530.7 55.1 530.7 76.5 536.6 76.5C538.6 76.5 540.4 76 541.9 75.1 543.4 74.2 544.5 72.9 545.2 71.3 545.9 69.7 546.3 67.9 546.3 65.8 546.3 62.6 545.4 60.1 543.7 58.1 542 56.1 539.6 55.2 536.6 55.2Z"/><path d="M584.7 76.5 584.7 80.6 564.4 80.6 564.4 50.9 584.4 50.9 584.4 55 569.1 55 569.1 63.4 582.3 63.4 582.3 67.3 569.1 67.3 569.1 76.4 584.8 76.4Z"/></g><g><path d="M88.7 139.3 88.7 109.6 101.5 109.6C102.9 109.6 104.2 109.9 105.5 110.5 106.8 111.1 107.8 111.9 108.7 112.8 109.6 113.8 110.2 114.9 110.7 116.1 111.2 117.3 111.5 118.6 111.5 119.8 111.5 121 111.3 122.4 110.8 123.6 110.3 124.8 109.7 125.9 108.8 126.9 107.9 127.9 106.9 128.6 105.7 129.2 104.5 129.8 103.1 130.1 101.7 130.1L96.8 130.1 96.8 139.2 88.7 139.2ZM96.8 123.1 101.1 123.1C101.7 123.1 102.2 122.8 102.6 122.3 103 121.8 103.2 121 103.2 119.9 103.2 118.8 103 118 102.5 117.5 102 117 101.5 116.7 100.9 116.7L96.8 116.7 96.8 123Z"/><path d="M119.5 124.4C119.5 122.5 119.9 120.6 120.6 118.8 121.3 117 122.4 115.4 123.7 114 125 112.6 126.6 111.5 128.5 110.7 130.4 109.9 132.4 109.5 134.6 109.5 136.8 109.5 138.8 109.9 140.7 110.8 142.6 111.7 144.2 112.8 145.5 114.2 146.8 115.6 147.8 117.2 148.5 119 149.2 120.8 149.6 122.7 149.6 124.5 149.6 126.3 149.2 128.3 148.5 130.1 147.7 131.9 146.7 133.5 145.4 134.9 144.1 136.3 142.5 137.4 140.6 138.2 138.7 139 136.7 139.4 134.5 139.4 132.3 139.4 130.3 139 128.4 138.1 126.5 137.2 124.9 136.1 123.6 134.7 122.3 133.3 121.3 131.7 120.6 129.9 119.9 128.1 119.5 126.2 119.5 124.3ZM134.6 132.3C135.7 132.3 136.7 132.1 137.6 131.6 138.5 131.1 139.2 130.5 139.7 129.8 140.2 129.1 140.6 128.2 140.9 127.3 141.2 126.4 141.3 125.4 141.3 124.4 141.3 123.4 141.1 121.7 140.6 120.6 140.1 119.5 139.3 118.5 138.3 117.8 137.2 117.1 136 116.7 134.5 116.7 133 116.7 132.4 116.9 131.5 117.4 130.6 117.8 129.9 118.4 129.4 119.2 128.9 119.9 128.5 120.8 128.2 121.7 127.9 122.6 127.8 123.6 127.8 124.6 127.8 125.6 127.9 126.6 128.2 127.5 128.5 128.4 128.9 129.2 129.4 130 129.9 130.7 130.7 131.3 131.5 131.8 132.4 132.2 133.4 132.5 134.5 132.5Z"/><path d="M159.5 139.3 159.5 109.6 167.6 109.6 167.6 132.2 181.1 132.2 181.1 139.3 159.5 139.3Z"/><path d="M190.4 139.3 190.4 109.6 198.5 109.6 198.5 139.3 190.4 139.3ZM196.9 108.4 191.9 107.1 194 101.2 201.1 101.2 197 108.5Z"/><path d="M233.2 116.7 224.7 116.7 224.7 139.3 216.5 139.3 216.5 116.7 207.9 116.7 207.9 109.6 233.1 109.6 233.1 116.7Z"/><path d="M242.6 139.3 242.6 109.6 250.7 109.6 250.7 139.3 242.6 139.3Z"/><path d="M275.8 109.5C278.6 109.5 281 110.1 283.2 111.3 285.4 112.5 286.9 114 288 116L281.8 120.4C281.5 119.7 281.2 119.1 280.7 118.6 280.2 118.1 279.7 117.7 279.1 117.5 278.5 117.3 278 117 277.4 116.9 276.8 116.8 276.3 116.7 275.7 116.7 274.6 116.7 273.6 116.9 272.7 117.4 271.8 117.9 271.1 118.5 270.6 119.2 270.1 120 269.7 120.8 269.4 121.7 269.1 122.6 269 123.5 269 124.5 269 126.7 269.6 128.5 270.9 130 272.1 131.5 273.8 132.3 275.8 132.3 277.8 132.3 277.4 132.2 278.1 132 278.8 131.8 279.5 131.4 280.2 130.8 280.9 130.2 281.4 129.5 281.7 128.7L288.4 132.7C287.8 134.1 286.9 135.3 285.5 136.4 284.1 137.5 282.6 138.3 280.9 138.8 279.2 139.3 277.5 139.6 275.8 139.6 274.1 139.6 271.7 139.2 269.8 138.3 267.9 137.4 266.3 136.3 265 134.8 263.7 133.4 262.7 131.7 262 129.9 261.3 128.1 260.9 126.2 260.9 124.3 260.9 122.4 261.3 120.7 262 118.9 262.7 117.2 263.7 115.6 264.9 114.2 266.2 112.8 267.8 111.7 269.7 110.8 271.6 109.9 273.8 109.5 276.1 109.5Z"/><path d="M304.4 109.6 313.5 109.6 322.9 139.3 314.6 139.3 312.8 133.5 304.9 133.5 303.1 139.3 294.8 139.3 304.3 109.6ZM311.6 128.1 309 117.7 306.2 128.1 311.6 128.1Z"/><path d="M368.8 132.2 368.8 139.3 347.7 139.3 347.7 109.6 368.5 109.6 368.5 116.7 355.9 116.7 355.9 120.9 366.7 120.9 366.7 127.5 355.9 127.5 355.9 132.2 368.9 132.2Z"/><path d="M392.6 109.5C395.4 109.5 397.8 110.1 400 111.3 402.2 112.5 403.7 114 404.8 116L398.6 120.4C398.3 119.7 398 119.1 397.5 118.6 397 118.1 396.5 117.7 395.9 117.5 395.3 117.3 394.8 117 394.2 116.9 393.6 116.8 393.1 116.7 392.5 116.7 391.4 116.7 390.4 116.9 389.5 117.4 388.6 117.9 387.9 118.5 387.4 119.2 386.9 120 386.5 120.8 386.2 121.7 385.9 122.6 385.8 123.5 385.8 124.5 385.8 126.7 386.4 128.5 387.7 130 388.9 131.5 390.6 132.3 392.6 132.3 394.6 132.3 394.2 132.2 394.9 132 395.6 131.8 396.3 131.4 397 130.8 397.7 130.2 398.2 129.5 398.5 128.7L405.2 132.7C404.6 134.1 403.7 135.3 402.3 136.4 400.9 137.5 399.4 138.3 397.7 138.8 396 139.3 394.3 139.6 392.6 139.6 390.9 139.6 388.5 139.2 386.6 138.3 384.7 137.4 383.1 136.3 381.8 134.8 380.5 133.4 379.5 131.7 378.8 129.9 378.1 128.1 377.7 126.2 377.7 124.3 377.7 122.4 378.1 120.7 378.8 118.9 379.5 117.2 380.5 115.6 381.7 114.2 383 112.8 384.6 111.7 386.5 110.8 388.4 109.9 390.6 109.5 392.9 109.5Z"/><path d="M412.7 124.4C412.7 122.5 413.1 120.6 413.8 118.8 414.5 117 415.6 115.4 416.9 114 418.2 112.6 419.8 111.5 421.7 110.7 423.6 109.9 425.6 109.5 427.8 109.5 430 109.5 432 109.9 433.9 110.8 435.8 111.7 437.4 112.8 438.7 114.2 440 115.6 441 117.2 441.7 119 442.4 120.8 442.8 122.7 442.8 124.5 442.8 126.3 442.4 128.3 441.7 130.1 440.9 131.9 439.9 133.5 438.6 134.9 437.3 136.3 435.7 137.4 433.8 138.2 431.9 139 429.9 139.4 427.7 139.4 425.5 139.4 423.5 139 421.6 138.1 419.7 137.2 418.1 136.1 416.8 134.7 415.5 133.3 414.5 131.7 413.8 129.9 413.1 128.1 412.7 126.2 412.7 124.3ZM427.8 132.3C428.9 132.3 429.9 132.1 430.8 131.6 431.7 131.1 432.4 130.5 432.9 129.8 433.4 129.1 433.8 128.2 434.1 127.3 434.4 126.4 434.5 125.4 434.5 124.4 434.5 123.4 434.3 121.7 433.8 120.6 433.3 119.5 432.5 118.5 431.5 117.8 430.4 117.1 429.2 116.7 427.7 116.7 426.2 116.7 425.6 116.9 424.7 117.4 423.8 117.8 423.1 118.4 422.6 119.2 422.1 119.9 421.7 120.8 421.4 121.7 421.1 122.6 421 123.6 421 124.6 421 125.6 421.1 126.6 421.4 127.5 421.7 128.4 422.1 129.2 422.6 130 423.1 130.7 423.9 131.3 424.7 131.8 425.6 132.2 426.6 132.5 427.7 132.5Z"/><path d="M460.9 124.7 460.9 139.3 452.8 139.3 452.8 109.6 459.1 109.6 471 124.7 471 109.6 479.1 109.6 479.1 139.3 472.6 139.3 460.8 124.7Z"/><path d="M489 124.4C489 122.5 489.4 120.6 490.1 118.8 490.8 117 491.9 115.4 493.2 114 494.5 112.6 496.1 111.5 498 110.7 499.9 109.9 501.9 109.5 504.1 109.5 506.3 109.5 508.3 109.9 510.2 110.8 512.1 111.7 513.7 112.8 515 114.2 516.3 115.6 517.3 117.2 518 119 518.7 120.8 519.1 122.7 519.1 124.5 519.1 126.3 518.7 128.3 518 130.1 517.2 131.9 516.2 133.5 514.9 134.9 513.6 136.3 512 137.4 510.1 138.2 508.2 139 506.2 139.4 504 139.4 501.8 139.4 499.8 139 497.9 138.1 496 137.2 494.4 136.1 493.1 134.7 491.8 133.3 490.8 131.7 490.1 129.9 489.4 128.1 489 126.2 489 124.3ZM496.7 105.9 501.4 101.1 507.1 101.1 511.8 105.9 507.8 107.7 504.2 105.1 500.6 107.7 496.6 105.9ZM504.1 132.3C505.2 132.3 506.2 132.1 507.1 131.6 508 131.1 508.7 130.5 509.2 129.8 509.7 129.1 510.1 128.2 510.4 127.3 510.7 126.4 510.8 125.4 510.8 124.4 510.8 123.4 510.6 121.7 510.1 120.6 509.6 119.5 508.8 118.5 507.8 117.8 506.7 117.1 505.5 116.7 504 116.7 502.5 116.7 501.9 116.9 501 117.4 500.1 117.8 499.4 118.4 498.9 119.2 498.4 119.9 498 120.8 497.7 121.7 497.4 122.6 497.3 123.6 497.3 124.6 497.3 125.6 497.4 126.6 497.7 127.5 498 128.4 498.4 129.2 498.9 130 499.4 130.7 500.2 131.3 501 131.8 501.9 132.2 502.9 132.5 504 132.5Z"/><path d="M551.5 139.3 551.5 123.7 546.5 134.7 542.2 134.7 537.2 123.7 537.2 139.3 529.1 139.3 529.1 109.6 538 109.6 544.4 123.6 550.8 109.6 559.7 109.6 559.7 139.3 551.6 139.3Z"/><path d="M571.2 139.3 571.2 109.6 579.3 109.6 579.3 139.3 571.2 139.3Z"/><path d="M604.4 109.5C607.2 109.5 609.6 110.1 611.8 111.3 614 112.5 615.5 114 616.6 116L610.4 120.4C610.1 119.7 609.8 119.1 609.3 118.6 608.8 118.1 608.3 117.7 607.7 117.5 607.1 117.3 606.6 117 606 116.9 605.4 116.8 604.9 116.7 604.3 116.7 603.2 116.7 602.2 116.9 601.3 117.4 600.4 117.9 599.7 118.5 599.2 119.2 598.7 120 598.3 120.8 598 121.7 597.7 122.6 597.6 123.5 597.6 124.5 597.6 126.7 598.2 128.5 599.5 130 600.7 131.5 602.4 132.3 604.4 132.3 606.4 132.3 606 132.2 606.7 132 607.4 131.8 608.1 131.4 608.8 130.8 609.5 130.2 610 129.5 610.3 128.7L617 132.7C616.4 134.1 615.5 135.3 614.1 136.4 612.7 137.5 611.2 138.3 609.5 138.8 607.8 139.3 606.1 139.6 604.4 139.6 602.7 139.6 600.3 139.2 598.4 138.3 596.5 137.4 594.9 136.3 593.6 134.8 592.3 133.4 591.3 131.7 590.6 129.9 589.9 128.1 589.5 126.2 589.5 124.3 589.5 122.4 589.9 120.7 590.6 118.9 591.3 117.2 592.3 115.6 593.5 114.2 594.8 112.8 596.4 111.7 598.3 110.8 600.2 109.9 602.4 109.5 604.7 109.5Z"/><path d="M633 109.6 642.1 109.6 651.5 139.3 643.2 139.3 641.4 133.5 633.5 133.5 631.7 139.3 623.4 139.3 632.9 109.6ZM640.2 128.1 637.6 117.7 634.8 128.1 640.2 128.1Z"/></g></g></svg>