<?xml version="1.0" encoding="UTF-8"?>
<svg id="Camada_1" xmlns="http://www.w3.org/2000/svg" version="1.1" viewBox="0 0 756.1 733.7">
  <!-- Generator: Adobe Illustrator 29.7.1, SVG Export Plug-In . SVG Version: 2.1.1 Build 8)  -->
  <defs>
    <style>
      .st0 {
        fill: #00d000;
      }

      .st1 {
        fill: #3c3c3c;
      }

      .st2 {
        fill: #ffd000;
      }

      .st3 {
        fill: #183eff;
      }

      .st4 {
        fill: red;
      }
    </style>
  </defs>
  <path d="M115.2,666.5c2.9,0,5.3,1,7.2,3.1,1.9,2,2.9,4.6,2.9,7.5s-1,5.5-2.9,7.5c-1.9,2-4.3,3.1-7.2,3.1h-8.3v-21.2h8.3ZM115.2,684.3c2,0,3.6-.7,4.9-2.1,1.3-1.4,1.9-3.1,1.9-5.2s-.6-3.9-1.9-5.2c-1.3-1.4-2.9-2-4.9-2h-4.8v14.5h4.8Z"/>
  <path d="M150.2,684.8c-2.1,2.1-4.7,3.2-7.8,3.2s-5.7-1.1-7.8-3.2c-2.1-2.1-3.2-4.7-3.2-7.8s1.1-5.7,3.2-7.8c2.1-2.1,4.7-3.2,7.8-3.2s5.7,1.1,7.8,3.2c2.1,2.1,3.2,4.7,3.2,7.8s-1.1,5.7-3.2,7.8M137.1,682.5c1.4,1.4,3.2,2.2,5.3,2.2s3.9-.7,5.3-2.2,2.2-3.3,2.2-5.4-.7-4-2.2-5.4c-1.4-1.4-3.2-2.2-5.3-2.2s-3.9.7-5.3,2.2c-1.4,1.4-2.2,3.3-2.2,5.4s.7,4,2.2,5.4"/>
  <polygon points="175.5 684.3 184.1 684.3 184.1 687.6 172 687.6 172 666.5 175.5 666.5 175.5 684.3"/>
  <path d="M205,687.7l-1.5-4.3h-9l-1.5,4.3h-3.8l7.7-21.2h4.2l7.7,21.2h-3.8ZM195.7,680.1h6.7l-3.3-9.6-3.4,9.6Z"/>
  <path d="M223.3,666.5c2.9,0,5.3,1,7.2,3.1,1.9,2,2.9,4.6,2.9,7.5s-1,5.5-2.9,7.5c-1.9,2-4.3,3.1-7.2,3.1h-8.3v-21.2h8.3ZM223.3,684.3c2,0,3.6-.7,4.9-2.1,1.3-1.4,1.9-3.1,1.9-5.2s-.6-3.9-1.9-5.2c-1.3-1.4-2.9-2-4.9-2h-4.8v14.5h4.8Z"/>
  <path d="M258.3,684.8c-2.1,2.1-4.7,3.2-7.8,3.2s-5.7-1.1-7.8-3.2c-2.1-2.1-3.2-4.7-3.2-7.8s1.1-5.7,3.2-7.8c2.1-2.1,4.7-3.2,7.8-3.2s5.7,1.1,7.8,3.2c2.1,2.1,3.2,4.7,3.2,7.8s-1.1,5.7-3.2,7.8M245.1,682.5c1.4,1.4,3.2,2.2,5.3,2.2s3.9-.7,5.3-2.2,2.2-3.3,2.2-5.4-.7-4-2.2-5.4c-1.4-1.4-3.2-2.2-5.3-2.2s-3.9.7-5.3,2.2c-1.4,1.4-2.2,3.3-2.2,5.4s.7,4,2.2,5.4"/>
  <path d="M288.4,666.5c2.9,0,5.3,1,7.2,3.1,1.9,2,2.9,4.6,2.9,7.5s-1,5.5-2.9,7.5c-1.9,2-4.3,3.1-7.2,3.1h-8.3v-21.2h8.3ZM288.4,684.3c2,0,3.6-.7,4.9-2.1,1.3-1.4,1.9-3.1,1.9-5.2s-.6-3.9-1.9-5.2c-1.3-1.4-2.9-2-4.9-2h-4.8v14.5h4.8Z"/>
  <path d="M323.4,684.8c-2.1,2.1-4.7,3.2-7.8,3.2s-5.7-1.1-7.8-3.2c-2.1-2.1-3.2-4.7-3.2-7.8s1.1-5.7,3.2-7.8c2.1-2.1,4.7-3.2,7.8-3.2s5.7,1.1,7.8,3.2c2.1,2.1,3.2,4.7,3.2,7.8s-1.1,5.7-3.2,7.8M310.2,682.5c1.4,1.4,3.2,2.2,5.3,2.2s3.9-.7,5.3-2.2,2.2-3.3,2.2-5.4-.7-4-2.2-5.4c-1.4-1.4-3.2-2.2-5.3-2.2s-3.9.7-5.3,2.2c-1.4,1.4-2.2,3.3-2.2,5.4s.7,4,2.2,5.4"/>
  <path d="M353,666.5c2,0,3.7.7,5,2,1.3,1.3,2,3,2,5s-.7,3.6-2,4.9c-1.3,1.3-3,2-5,2h-4.3v7.3h-3.5v-21.2h7.8ZM353,677.1c1,0,1.9-.3,2.5-1,.7-.7,1-1.6,1-2.6s-.3-2-1-2.6c-.7-.7-1.5-1-2.5-1h-4.3v7.4h4.3Z"/>
  <path d="M384.5,684.8c-2.1,2.1-4.7,3.2-7.8,3.2s-5.7-1.1-7.8-3.2-3.2-4.7-3.2-7.8,1.1-5.7,3.2-7.8c2.1-2.1,4.7-3.2,7.8-3.2s5.7,1.1,7.8,3.2c2.1,2.1,3.2,4.7,3.2,7.8s-1.1,5.7-3.2,7.8M371.4,682.5c1.4,1.4,3.2,2.2,5.3,2.2s3.9-.7,5.3-2.2c1.4-1.4,2.2-3.3,2.2-5.4s-.7-4-2.2-5.4c-1.4-1.4-3.2-2.2-5.3-2.2s-3.9.7-5.3,2.2c-1.4,1.4-2.2,3.3-2.2,5.4s.7,4,2.2,5.4"/>
  <polygon points="399.3 687.6 391.9 666.5 395.8 666.5 401.4 683.4 407 666.5 410.8 666.5 403.5 687.6 399.3 687.6"/>
  <path d="M433.8,684.8c-2.1,2.1-4.7,3.2-7.8,3.2s-5.7-1.1-7.8-3.2c-2.1-2.1-3.2-4.7-3.2-7.8s1.1-5.7,3.2-7.8c2.1-2.1,4.7-3.2,7.8-3.2s5.7,1.1,7.8,3.2c2.1,2.1,3.2,4.7,3.2,7.8s-1.1,5.7-3.2,7.8M420.7,682.5c1.4,1.4,3.2,2.2,5.3,2.2s3.9-.7,5.3-2.2c1.4-1.4,2.2-3.3,2.2-5.4s-.7-4-2.2-5.4c-1.4-1.4-3.2-2.2-5.3-2.2s-3.9.7-5.3,2.2c-1.4,1.4-2.2,3.3-2.2,5.4s.7,4,2.2,5.4"/>
  <path d="M468.1,676.7c.9.5,1.7,1.2,2.2,2,.5.8.8,1.8.8,2.9,0,1.7-.6,3.2-1.8,4.3-1.2,1.2-2.7,1.7-4.5,1.7h-9.1v-21.2h8.4c1.7,0,3.2.6,4.4,1.7s1.8,2.5,1.8,4.2-.7,3.3-2.1,4.3M464.1,669.7h-4.9v5.6h4.9c.8,0,1.4-.3,1.9-.8.5-.5.8-1.2.8-2s-.3-1.4-.8-2c-.5-.5-1.2-.8-1.9-.8M464.7,684.4c.8,0,1.5-.3,2-.9.6-.6.8-1.3.8-2.1s-.3-1.5-.8-2.1c-.6-.6-1.2-.9-2-.9h-5.6v5.9h5.6Z"/>
  <path d="M490.1,687.6l-4.5-7.7h-4.1v7.7h-3.5v-21.2h8.5c1.9,0,3.5.7,4.8,2,1.3,1.3,2,2.9,2,4.8s-.4,2.6-1.2,3.7-1.8,1.9-3,2.4l4.8,8.2h-3.8ZM481.5,669.7v7.1h5c.9,0,1.7-.3,2.4-1,.6-.7,1-1.5,1-2.5s-.3-1.8-1-2.5c-.6-.7-1.4-1-2.4-1h-5Z"/>
  <path d="M514.3,687.7l-1.5-4.3h-9l-1.5,4.3h-3.8l7.7-21.2h4.2l7.7,21.2h-3.8ZM505,680.1h6.7l-3.3-9.6-3.4,9.6Z"/>
  <path d="M530.8,688c-2,0-3.8-.5-5.2-1.4-1.4-.9-2.4-2.2-3-3.8l3-1.8c.8,2.4,2.6,3.6,5.3,3.6s2.3-.3,3-.8c.7-.5,1-1.2,1-2s-.4-1.5-1.1-2c-.7-.5-2-1-3.8-1.5-1-.4-1.8-.7-2.4-.9-.6-.2-1.3-.6-2-1.1-.7-.5-1.2-1.1-1.6-1.8-.3-.7-.5-1.5-.5-2.5,0-1.9.7-3.4,2-4.5,1.3-1.1,2.9-1.6,4.8-1.6s3.2.4,4.4,1.2c1.3.8,2.3,2,2.9,3.4l-2.9,1.7c-.9-2-2.4-3-4.4-3s-1.8.2-2.4.7c-.6.5-.9,1.1-.9,1.9s.3,1.4.9,1.8c.6.4,1.7.9,3.4,1.4.8.3,1.4.5,1.7.7.4.1.9.3,1.6.6.7.3,1.2.5,1.5.8.3.3.7.6,1.1,1.1.4.4.7.9.8,1.5.2.6.2,1.2.2,1.9,0,1.9-.7,3.4-2.1,4.6-1.4,1.1-3.2,1.7-5.4,1.7"/>
  <rect x="545.1" y="666.5" width="3.5" height="21.2"/>
  <polygon points="560.2 684.3 568.8 684.3 568.8 687.6 556.7 687.6 556.7 666.5 560.2 666.5 560.2 684.3"/>
  <polygon points="578.8 684.3 588.2 684.3 588.2 687.6 575.3 687.6 575.3 666.5 588.1 666.5 588.1 669.8 578.8 669.8 578.8 675.3 587.3 675.3 587.3 678.6 578.8 678.6 578.8 684.3"/>
  <rect x="595.3" y="666.5" width="3.5" height="21.2"/>
  <path d="M619,687.6l-4.5-7.7h-4.1v7.7h-3.5v-21.2h8.5c1.9,0,3.5.7,4.8,2,1.3,1.3,2,2.9,2,4.8s-.4,2.6-1.2,3.7-1.8,1.9-3,2.4l4.8,8.2h-3.8ZM610.4,669.7v7.1h5c.9,0,1.7-.3,2.4-1,.6-.7,1-1.5,1-2.5s-.3-1.8-1-2.5c-.6-.7-1.4-1-2.4-1h-5Z"/>
  <path d="M647,684.8c-2.1,2.1-4.7,3.2-7.8,3.2s-5.7-1.1-7.8-3.2c-2.1-2.1-3.2-4.7-3.2-7.8s1.1-5.7,3.2-7.8c2.1-2.1,4.7-3.2,7.8-3.2s5.7,1.1,7.8,3.2c2.1,2.1,3.2,4.7,3.2,7.8s-1.1,5.7-3.2,7.8M633.9,682.5c1.4,1.4,3.2,2.2,5.3,2.2s3.9-.7,5.3-2.2c1.4-1.4,2.2-3.3,2.2-5.4s-.7-4-2.2-5.4c-1.4-1.4-3.2-2.2-5.3-2.2s-3.9.7-5.3,2.2c-1.4,1.4-2.2,3.3-2.2,5.4s.7,4,2.2,5.4"/>
  <path d="M236.2,438.9v2.2c0,8.7-5.8,14.4-13.6,14.4s-14.7-6.4-14.7-14.6,6.5-14.7,14.7-14.7,9.9,2.6,12.5,7l-6.4,3.8c-1.2-2.2-3.5-3.5-6.1-3.5-4.1,0-7,3.2-7,7.5s2.9,7.2,7.2,7.2,4.9-1.5,5.5-3.3h-7.5v-6h15.6Z"/>
  <path d="M245.5,440.8c0-8.2,6.5-14.7,14.7-14.7s14.6,6.5,14.6,14.7-6.5,14.7-14.6,14.7-14.7-6.5-14.7-14.7M266.7,440.8c0-4-2.8-6.9-6.5-6.9s-6.6,3-6.6,6.9,2.9,6.9,6.6,6.9,6.5-3,6.5-6.9"/>
  <polygon points="310.2 426.8 299.2 454.8 291.7 454.8 280.9 426.8 289 426.8 295.5 444.1 302.1 426.8 310.2 426.8"/>
  <polygon points="326.6 433.7 326.6 437.8 334.8 437.8 334.8 443.8 326.6 443.8 326.6 448 339 448 339 454.8 319 454.8 319 426.8 339 426.8 339 433.7 326.6 433.7"/>
  <path d="M360.3,445.1h-3.2v9.7h-7.5v-28h13.5c5.5,0,9.7,3.9,9.7,9.1s-1.9,6.5-4.9,8.1l6.2,10.8h-8.4l-5.6-9.7ZM357.1,438.8h5.3c1.8,0,2.9-1.2,2.9-2.6s-1.1-2.6-2.9-2.6h-5.3v5.2Z"/>
  <polygon points="408.6 426.8 408.6 454.8 402.2 454.8 391 440.1 391 454.8 383.5 454.8 383.5 426.8 389.8 426.8 401.2 441.6 401.2 426.8 408.6 426.8"/>
  <path d="M418.4,440.8c0-8.2,6.5-14.7,14.7-14.7s14.6,6.5,14.6,14.7-6.5,14.7-14.6,14.7-14.7-6.5-14.7-14.7M439.6,440.8c0-4-2.8-6.9-6.5-6.9s-6.6,3-6.6,6.9,2.9,6.9,6.6,6.9,6.5-3,6.5-6.9"/>
  <path d="M509.9,440.8c0,8-6.4,14-14.9,14h-11.4v-28h11.4c8.5,0,14.9,6,14.9,14M502.1,440.8c0-4.1-3-6.7-7.5-6.7h-3.4v13.4h3.4c4.4,0,7.5-2.6,7.5-6.7"/>
  <path d="M516.8,440.8c0-8.2,6.5-14.7,14.7-14.7s14.6,6.5,14.6,14.7-6.5,14.7-14.6,14.7-14.7-6.5-14.7-14.7M538,440.8c0-4-2.8-6.9-6.5-6.9s-6.6,3-6.6,6.9,2.9,6.9,6.6,6.9,6.5-3,6.5-6.9"/>
  <g>
    <path class="st2" d="M406.1,633.6v-42.9l-62.2-104.5-84.4,141.9,10.1-16.9,14.6,22.4h-27.9,33.9c0-29.7,24.1-53.8,53.8-53.8s53.8,24.1,53.8,53.8h33.9-25.5Z"/>
    <path class="st3" d="M397.7,633.6c0-29.7-24.1-53.8-53.8-53.8s-53.8,24.1-53.8,53.8h107.6Z"/>
    <polygon class="st2" points="246.2 575.2 188.3 486.2 188.3 575.2 246.2 575.2"/>
    <rect class="st2" x="76.5" y="545.4" width="51" height="88.3"/>
    <rect class="st2" x="577.6" y="486.2" width="51" height="97.9"/>
    <rect class="st3" x="628.6" y="584.1" width="51" height="49.5"/>
    <polygon class="st0" points="256.3 633.6 269.6 611.2 246.2 575.2 188.3 575.2 188.3 633.6 256.3 633.6"/>
    <rect class="st0" x="518.1" y="486.2" width="51" height="147.4"/>
    <path class="st3" d="M139.3,486.2h-11.8v59.2h11.8c16.3,0,29.6-13.2,29.6-29.6s-13.2-29.6-29.6-29.6"/>
    <rect class="st3" x="454.3" y="486.2" width="55.2" height="53.6"/>
    <path class="st2" d="M471.2,539.8h-16.8v93.8h16.8c25.9,0,46.9-21,46.9-46.9s-21-46.9-46.9-46.9"/>
    <path class="st0" d="M438.9,486.2c-18.1,0-32.8,14.7-32.8,32.8s14.7,32.8,32.8,32.8h15.4v-65.5h-15.4Z"/>
    <path class="st4" d="M144.2,545.4h-16.8v88.3h16.8c24.4,0,44.1-19.8,44.1-44.1s-19.8-44.1-44.1-44.1"/>
    <path class="st3" d="M246.2,486.2h-57.9l57.9,89c24.6,0,44.5-19.9,44.5-44.5s-19.9-44.5-44.5-44.5"/>
    <rect class="st0" x="76.5" y="486.2" width="51" height="59.2"/>
    <polygon class="st4" points="406.1 551.7 406.1 590.7 431.6 633.6 454.3 633.6 454.3 551.7 406.1 551.7"/>
    <polygon class="st1" points="406.1 590.7 406.1 633.6 431.6 633.6 406.1 590.7"/>
    <rect class="st1" x="577.6" y="584.1" width="51" height="49.5"/>
    <polygon class="st1" points="256.3 633.6 284.2 633.6 269.6 611.2 256.3 633.6"/>
  </g>
  <g>
    <g>
      <path d="M202,268.3v-21.1l-8.7,16h-2.8l-8.8-16v21.1h-4.7v-29.7h5l9.8,18.1,9.8-18.1h5v29.7h-4.7Z"/>
      <path d="M221.7,268.3v-29.7h4.7v29.7h-4.7Z"/>
      <path d="M246.1,247.3v21h-4.7v-29.7h3.8l16.8,21.4v-21.4h4.7v29.6h-4.1l-16.6-21Z"/>
      <path d="M281.9,268.3v-29.7h4.7v29.7h-4.7Z"/>
      <path d="M319.1,245.6c-.6-.7-1.7-1.4-3.3-2-1.5-.7-3.1-1-4.8-1s-3.4.4-4.3,1.1c-1,.7-1.4,1.7-1.4,3s0,.8.2,1.1c.1.3.2.6.4.9.2.3.4.5.8.7s.7.4,1,.6c.3.2.8.3,1.4.5s1.1.3,1.6.5c.5.1,1.2.3,2,.5,1.3.3,2.4.6,3.3.9.9.3,1.8.7,2.7,1.2.9.5,1.5,1,2.1,1.6s.9,1.3,1.2,2.1c.3.8.5,1.8.5,2.8s-.2,2.3-.6,3.2-.9,1.8-1.5,2.4-1.4,1.2-2.4,1.6c-.9.4-1.9.8-3,1-1.1.2-2.2.3-3.4.3-2.3,0-4.4-.3-6.5-1-2.1-.7-4-1.7-5.7-3l2.1-4c.9.9,2.3,1.7,4.2,2.6,1.9.8,3.9,1.2,6,1.2s3.3-.3,4.3-1c1-.7,1.5-1.6,1.5-2.8s0-.9-.2-1.3c-.2-.4-.4-.8-.8-1.1-.4-.3-.7-.6-1.1-.8s-.9-.5-1.7-.7c-.7-.2-1.4-.4-2-.6s-1.4-.4-2.4-.6c-1.6-.4-2.9-.8-3.9-1.2-1-.4-1.9-.9-2.7-1.5-.8-.6-1.3-1.3-1.7-2.2-.4-.8-.5-1.8-.5-3s.3-2.7.8-3.9,1.3-2.1,2.3-2.8,2.1-1.3,3.4-1.7c1.3-.4,2.7-.6,4.3-.6,3.6,0,7,1.1,10,3.3l-2.1,3.8Z"/>
      <path d="M357.2,242.7h-9.9v25.5h-4.7v-25.5h-9.9v-4.1h24.5v4.1Z"/>
      <path d="M389.9,264.1v4.1h-20.3v-29.7h20v4.1h-15.3v8.4h13.2v3.9h-13.2v9.1h15.7ZM381.6,235.5l-3-.9,2.4-4.6h4.4l-3.8,5.5Z"/>
      <path d="M403.1,268.3v-29.7h12.9c1.3,0,2.5.3,3.7.8s2.1,1.3,2.9,2.2c.8.9,1.4,1.9,1.9,3.1.5,1.2.7,2.3.7,3.5,0,2-.5,3.8-1.6,5.5-1.1,1.6-2.5,2.7-4.2,3.3l7,11.3h-5.3l-6.4-10.3h-6.9v10.3h-4.7ZM407.8,253.8h8.2c1.3,0,2.4-.5,3.2-1.6s1.3-2.4,1.3-3.9-.5-2.8-1.4-3.9c-1-1.1-2.1-1.6-3.3-1.6h-7.9v11.1Z"/>
      <path d="M439.1,268.3v-29.7h4.7v29.7h-4.7Z"/>
      <path d="M456.9,253.4c0-2,.4-3.9,1.1-5.7.7-1.8,1.7-3.4,3-4.8,1.3-1.4,2.8-2.5,4.6-3.3,1.8-.8,3.7-1.2,5.7-1.2s4,.4,5.8,1.3c1.8.9,3.3,2,4.5,3.4,1.2,1.4,2.2,3,2.8,4.8.7,1.8,1,3.6,1,5.5s-.4,3.8-1.1,5.7c-.7,1.8-1.7,3.4-2.9,4.8-1.2,1.4-2.7,2.5-4.5,3.3s-3.7,1.2-5.7,1.2-3.2-.3-4.7-.8-2.8-1.3-3.9-2.3-2.1-2.1-3-3.3c-.8-1.3-1.5-2.6-1.9-4.1-.4-1.5-.7-3-.7-4.5ZM471.1,264.2c1.4,0,2.8-.3,4-.9,1.2-.6,2.2-1.5,3-2.5.8-1,1.4-2.2,1.8-3.5.4-1.3.6-2.6.6-3.9s-.2-2.8-.7-4.1c-.5-1.3-1.1-2.4-1.9-3.4-.8-1-1.8-1.8-3-2.4s-2.5-.9-3.9-.9-2.8.3-4,.9c-1.2.6-2.2,1.4-3,2.5-.8,1-1.4,2.2-1.8,3.4-.4,1.3-.7,2.6-.7,3.9s.4,3.6,1.1,5.3c.8,1.6,1.9,3,3.3,4,1.5,1,3.1,1.6,5,1.6Z"/>
      <path d="M517.2,268.3v-29.7h10.5c2.3,0,4.4.4,6.3,1.2,1.9.8,3.4,1.8,4.6,3.2s2.1,2.9,2.7,4.7c.6,1.8.9,3.7.9,5.8,0,4.5-1.3,8.1-3.9,10.8s-6.1,4.1-10.5,4.1h-10.5ZM527.7,242.7h-5.9v21.4h5.9c2,0,3.8-.5,5.3-1.4,1.5-.9,2.6-2.2,3.3-3.8.7-1.6,1.1-3.4,1.1-5.5,0-3.2-.9-5.7-2.6-7.7-1.7-2-4.1-2.9-7.1-2.9Z"/>
      <path d="M563,238.6h4.4l11.5,29.7h-4.9l-3.1-8.1h-11.4l-3.1,8.1h-5l11.6-29.7ZM569.9,256.7l-4.8-13-4.9,13h9.7Z"/>
    </g>
    <g>
      <path d="M260,326.9v-29.7h20.3v7.1h-12.2v4.9h10v6.6h-10v11h-8.1Z"/>
      <path d="M296.8,297.3h9.1l9.4,29.7h-8.3l-1.8-5.8h-7.9l-1.8,5.8h-8.3l9.5-29.7ZM304,315.7l-2.6-10.4-2.8,10.4h5.4Z"/>
      <path d="M324.7,320.9l13.5-16.5h-12.8v-7.1h22.6v6.1l-12.6,16.5h12.9v7.1h-23.5v-6.1Z"/>
      <path d="M381.6,319.8v7.1h-21.1v-29.7h20.8v7.1h-12.6v4.2h10.8v6.6h-10.8v4.7h13Z"/>
      <path d="M401.9,312.3v14.6h-8.1v-29.7h6.3l11.9,15.1v-15.1h8.1v29.7h-6.5l-11.8-14.6Z"/>
      <path d="M433.6,326.9v-29.7h11.4c2.4,0,4.6.4,6.5,1.2,1.9.8,3.5,1.8,4.7,3.2s2.1,2.9,2.8,4.7c.6,1.8,1,3.7,1,5.8,0,4.5-1.4,8.1-4.1,10.8-2.7,2.7-6.3,4.1-10.9,4.1h-11.4ZM445,304.4h-3.3v15.5h3.3c2.1,0,3.7-.7,4.9-2.2,1.2-1.4,1.8-3.3,1.8-5.6s-.6-4.2-1.8-5.6c-1.2-1.4-2.8-2.1-4.9-2.1Z"/>
      <path d="M477.5,297.3h9.1l9.4,29.7h-8.3l-1.8-5.8h-7.9l-1.8,5.8h-8.3l9.5-29.7ZM484.7,315.7l-2.6-10.4-2.8,10.4h5.4Z"/>
    </g>
    <g>
      <path d="M188.2,58c-.6-.7-1.7-1.4-3.3-2-1.5-.7-3.1-1-4.8-1s-3.4.4-4.3,1.1c-1,.7-1.4,1.7-1.4,3s0,.8.2,1.1c.1.3.2.6.4.9.2.3.4.5.8.7s.7.4,1,.6c.3.2.8.3,1.4.5s1.1.3,1.6.5c.5.1,1.2.3,2,.5,1.3.3,2.4.6,3.3.9.9.3,1.8.7,2.7,1.2.9.5,1.5,1,2.1,1.6s.9,1.3,1.2,2.1c.3.8.5,1.8.5,2.8s-.2,2.3-.6,3.2-.9,1.8-1.5,2.4-1.4,1.2-2.4,1.6c-.9.4-1.9.8-3,1-1.1.2-2.2.3-3.4.3-2.3,0-4.4-.3-6.5-1-2.1-.7-4-1.7-5.7-3l2.1-4c.9.9,2.3,1.7,4.2,2.6,1.9.8,3.9,1.2,6,1.2s3.3-.3,4.3-1c1-.7,1.5-1.6,1.5-2.8s0-.9-.2-1.3c-.2-.4-.4-.8-.8-1.1-.4-.3-.7-.6-1.1-.8s-.9-.5-1.7-.7c-.7-.2-1.4-.4-2-.6s-1.4-.4-2.4-.6c-1.6-.4-2.9-.8-3.9-1.2-1-.4-1.9-.9-2.7-1.5-.8-.6-1.3-1.3-1.7-2.2-.4-.8-.5-1.8-.5-3s.3-2.7.8-3.9,1.3-2.1,2.3-2.8,2.1-1.3,3.4-1.7c1.3-.4,2.7-.6,4.3-.6,3.6,0,7,1.1,10,3.3l-2.1,3.8Z"/>
      <path d="M224.9,76.5v4.1h-20.3v-29.7h20v4.1h-15.3v8.4h13.2v3.9h-13.2v9.1h15.7Z"/>
      <path d="M250.6,50.8c2.6,0,4.9.6,6.8,1.8s3.4,2.7,4.4,4.7l-3.7,2.5c-.4-.9-.9-1.6-1.5-2.2-.6-.6-1.3-1.1-2-1.5s-1.4-.6-2.1-.8c-.7-.2-1.4-.2-2.2-.2-1.2,0-2.3.2-3.3.6-1,.4-1.9,1-2.7,1.7s-1.4,1.5-1.9,2.4c-.5.9-.9,1.9-1.2,2.9-.3,1-.4,2.1-.4,3.1,0,1.9.4,3.7,1.2,5.4.8,1.7,2,3,3.4,4,1.5,1,3.1,1.5,4.9,1.5s2-.2,3-.5,1.9-.9,2.8-1.6c.9-.8,1.6-1.7,2.1-2.8l3.9,2.2c-.6,1.4-1.5,2.7-2.9,3.7-1.3,1.1-2.8,1.9-4.3,2.4s-3.2.8-4.8.8-3.9-.4-5.7-1.3c-1.8-.9-3.3-2-4.5-3.5-1.2-1.4-2.2-3.1-2.9-4.9-.7-1.8-1.1-3.7-1.1-5.6s.2-2.9.6-4.3,1-2.8,1.8-4c.8-1.3,1.8-2.4,2.9-3.3,1.1-1,2.5-1.7,4-2.3s3.2-.8,5-.8Z"/>
      <path d="M275,80.6v-29.7h12.9c1.3,0,2.5.3,3.7.8s2.1,1.3,2.9,2.2c.8.9,1.4,1.9,1.9,3.1.5,1.2.7,2.3.7,3.5,0,2-.5,3.8-1.6,5.5-1.1,1.6-2.5,2.7-4.2,3.3l7,11.3h-5.3l-6.4-10.3h-6.9v10.3h-4.7ZM279.7,66.2h8.2c1.3,0,2.4-.5,3.2-1.6s1.3-2.4,1.3-3.9-.5-2.8-1.4-3.9c-1-1.1-2.1-1.6-3.3-1.6h-7.9v11.1Z"/>
      <path d="M331.3,76.5v4.1h-20.3v-29.7h20v4.1h-15.3v8.4h13.2v3.9h-13.2v9.1h15.7Z"/>
      <path d="M366.3,55.1h-9.9v25.5h-4.7v-25.5h-9.9v-4.1h24.5v4.1Z"/>
      <path d="M387.2,51h4.4l11.5,29.7h-4.9l-3.1-8.1h-11.4l-3.1,8.1h-5l11.6-29.7ZM394.1,69.1l-4.8-13-4.9,13h9.7Z"/>
      <path d="M415.2,80.6v-29.7h12.9c1.3,0,2.5.3,3.7.8s2.1,1.3,2.9,2.2c.8.9,1.4,1.9,1.9,3.1.5,1.2.7,2.3.7,3.5,0,2-.5,3.8-1.6,5.5-1.1,1.6-2.5,2.7-4.2,3.3l7,11.3h-5.3l-6.4-10.3h-6.9v10.3h-4.7ZM419.8,66.2h8.2c1.3,0,2.4-.5,3.2-1.6s1.3-2.4,1.3-3.9-.5-2.8-1.4-3.9c-1-1.1-2.1-1.6-3.3-1.6h-7.9v11.1Z"/>
      <path d="M451.1,80.6v-29.7h4.7v29.7h-4.7Z"/>
      <path d="M479.4,51h4.4l11.5,29.7h-4.9l-3.1-8.1h-11.4l-3.1,8.1h-5l11.6-29.7ZM486.4,69.1l-4.8-13-4.9,13h9.7Z"/>
      <path d="M526.1,80.6v-29.7h10.5c2.3,0,4.4.4,6.3,1.2,1.9.8,3.4,1.8,4.6,3.2s2.1,2.9,2.7,4.7c.6,1.8.9,3.7.9,5.8,0,4.5-1.3,8.1-3.9,10.8s-6.1,4.1-10.5,4.1h-10.5ZM536.6,55.1h-5.9v21.4h5.9c2,0,3.8-.5,5.3-1.4,1.5-.9,2.6-2.2,3.3-3.8.7-1.6,1.1-3.4,1.1-5.5,0-3.2-.9-5.7-2.6-7.7-1.7-2-4.1-2.9-7.1-2.9Z"/>
      <path d="M584.7,76.5v4.1h-20.3v-29.7h20v4.1h-15.3v8.4h13.2v3.9h-13.2v9.1h15.7Z"/>
    </g>
    <g>
      <path d="M88.7,139.3v-29.7h12.8c1.4,0,2.7.3,4,.9,1.3.6,2.3,1.4,3.2,2.3.9,1,1.5,2.1,2,3.3.5,1.2.8,2.5.8,3.7s-.2,2.6-.7,3.8c-.5,1.2-1.1,2.3-2,3.3s-1.9,1.7-3.1,2.3c-1.2.6-2.6.9-4,.9h-4.9v9.1h-8.1ZM96.8,123.1h4.3c.6,0,1.1-.3,1.5-.8.4-.5.6-1.3.6-2.4s-.2-1.9-.7-2.4c-.5-.5-1-.8-1.6-.8h-4.1v6.3Z"/>
      <path d="M119.5,124.4c0-1.9.4-3.8,1.1-5.6s1.8-3.4,3.1-4.8,2.9-2.5,4.8-3.3c1.9-.8,3.9-1.2,6.1-1.2s4.2.4,6.1,1.3c1.9.9,3.5,2,4.8,3.4,1.3,1.4,2.3,3,3,4.8.7,1.8,1.1,3.7,1.1,5.5s-.4,3.8-1.1,5.6c-.8,1.8-1.8,3.4-3.1,4.8s-2.9,2.5-4.8,3.3c-1.9.8-3.9,1.2-6.1,1.2s-4.2-.4-6.1-1.3c-1.9-.9-3.5-2-4.8-3.4-1.3-1.4-2.3-3-3-4.8-.7-1.8-1.1-3.7-1.1-5.6ZM134.6,132.3c1.1,0,2.1-.2,3-.7.9-.5,1.6-1.1,2.1-1.8s.9-1.6,1.2-2.5c.3-.9.4-1.9.4-2.9s-.2-2.7-.7-3.8-1.3-2.1-2.3-2.8c-1.1-.7-2.3-1.1-3.8-1.1s-2.1.2-3,.7c-.9.4-1.6,1-2.1,1.8-.5.7-.9,1.6-1.2,2.5s-.4,1.9-.4,2.9.1,2,.4,2.9c.3.9.7,1.7,1.2,2.5.5.7,1.3,1.3,2.1,1.8.9.4,1.9.7,3,.7Z"/>
      <path d="M159.5,139.3v-29.7h8.1v22.6h13.5v7.1h-21.6Z"/>
      <path d="M190.4,139.3v-29.7h8.1v29.7h-8.1ZM196.9,108.4l-5-1.3,2.1-5.9h7.1l-4.1,7.3Z"/>
      <path d="M233.2,116.7h-8.5v22.6h-8.2v-22.6h-8.6v-7.1h25.2v7.1Z"/>
      <path d="M242.6,139.3v-29.7h8.1v29.7h-8.1Z"/>
      <path d="M275.8,109.5c2.8,0,5.2.6,7.4,1.8s3.7,2.7,4.8,4.7l-6.2,4.4c-.3-.7-.6-1.3-1.1-1.8-.5-.5-1-.9-1.6-1.1s-1.1-.5-1.7-.6-1.1-.2-1.7-.2c-1.1,0-2.1.2-3,.7-.9.5-1.6,1.1-2.1,1.8-.5.8-.9,1.6-1.2,2.5-.3.9-.4,1.8-.4,2.8,0,2.2.6,4,1.9,5.5,1.2,1.5,2.9,2.3,4.9,2.3s1.6-.1,2.3-.3c.7-.2,1.4-.6,2.1-1.2.7-.6,1.2-1.3,1.5-2.1l6.7,4c-.6,1.4-1.5,2.6-2.9,3.7-1.4,1.1-2.9,1.9-4.6,2.4-1.7.5-3.4.8-5.1.8s-4.1-.4-6-1.3c-1.9-.9-3.5-2-4.8-3.5-1.3-1.4-2.3-3.1-3-4.9-.7-1.8-1.1-3.7-1.1-5.6s.4-3.6,1.1-5.4c.7-1.7,1.7-3.3,2.9-4.7,1.3-1.4,2.9-2.5,4.8-3.4,1.9-.9,4.1-1.3,6.4-1.3Z"/>
      <path d="M304.4,109.6h9.1l9.4,29.7h-8.3l-1.8-5.8h-7.9l-1.8,5.8h-8.3l9.5-29.7ZM311.6,128.1l-2.6-10.4-2.8,10.4h5.4Z"/>
      <path d="M368.8,132.2v7.1h-21.1v-29.7h20.8v7.1h-12.6v4.2h10.8v6.6h-10.8v4.7h13Z"/>
      <path d="M392.6,109.5c2.8,0,5.2.6,7.4,1.8s3.7,2.7,4.8,4.7l-6.2,4.4c-.3-.7-.6-1.3-1.1-1.8-.5-.5-1-.9-1.6-1.1s-1.1-.5-1.7-.6-1.1-.2-1.7-.2c-1.1,0-2.1.2-3,.7-.9.5-1.6,1.1-2.1,1.8-.5.8-.9,1.6-1.2,2.5-.3.9-.4,1.8-.4,2.8,0,2.2.6,4,1.9,5.5,1.2,1.5,2.9,2.3,4.9,2.3s1.6-.1,2.3-.3c.7-.2,1.4-.6,2.1-1.2.7-.6,1.2-1.3,1.5-2.1l6.7,4c-.6,1.4-1.5,2.6-2.9,3.7-1.4,1.1-2.9,1.9-4.6,2.4-1.7.5-3.4.8-5.1.8s-4.1-.4-6-1.3c-1.9-.9-3.5-2-4.8-3.5-1.3-1.4-2.3-3.1-3-4.9-.7-1.8-1.1-3.7-1.1-5.6s.4-3.6,1.1-5.4c.7-1.7,1.7-3.3,2.9-4.7,1.3-1.4,2.9-2.5,4.8-3.4,1.9-.9,4.1-1.3,6.4-1.3Z"/>
      <path d="M412.7,124.4c0-1.9.4-3.8,1.1-5.6s1.8-3.4,3.1-4.8,2.9-2.5,4.8-3.3c1.9-.8,3.9-1.2,6.1-1.2s4.2.4,6.1,1.3c1.9.9,3.5,2,4.8,3.4,1.3,1.4,2.3,3,3,4.8.7,1.8,1.1,3.7,1.1,5.5s-.4,3.8-1.1,5.6c-.8,1.8-1.8,3.4-3.1,4.8s-2.9,2.5-4.8,3.3c-1.9.8-3.9,1.2-6.1,1.2s-4.2-.4-6.1-1.3c-1.9-.9-3.5-2-4.8-3.4-1.3-1.4-2.3-3-3-4.8-.7-1.8-1.1-3.7-1.1-5.6ZM427.8,132.3c1.1,0,2.1-.2,3-.7.9-.5,1.6-1.1,2.1-1.8s.9-1.6,1.2-2.5c.3-.9.4-1.9.4-2.9s-.2-2.7-.7-3.8-1.3-2.1-2.3-2.8c-1.1-.7-2.3-1.1-3.8-1.1s-2.1.2-3,.7c-.9.4-1.6,1-2.1,1.8-.5.7-.9,1.6-1.2,2.5s-.4,1.9-.4,2.9.1,2,.4,2.9c.3.9.7,1.7,1.2,2.5.5.7,1.3,1.3,2.1,1.8.9.4,1.9.7,3,.7Z"/>
      <path d="M460.9,124.7v14.6h-8.1v-29.7h6.3l11.9,15.1v-15.1h8.1v29.7h-6.5l-11.8-14.6Z"/>
      <path d="M489,124.4c0-1.9.4-3.8,1.1-5.6s1.8-3.4,3.1-4.8,2.9-2.5,4.8-3.3c1.9-.8,3.9-1.2,6.1-1.2s4.2.4,6.1,1.3c1.9.9,3.5,2,4.8,3.4,1.3,1.4,2.3,3,3,4.8.7,1.8,1.1,3.7,1.1,5.5s-.4,3.8-1.1,5.6c-.8,1.8-1.8,3.4-3.1,4.8s-2.9,2.5-4.8,3.3c-1.9.8-3.9,1.2-6.1,1.2s-4.2-.4-6.1-1.3c-1.9-.9-3.5-2-4.8-3.4-1.3-1.4-2.3-3-3-4.8-.7-1.8-1.1-3.7-1.1-5.6ZM496.7,105.9l4.7-4.8h5.7l4.7,4.8-4,1.8-3.6-2.6-3.6,2.6-4-1.8ZM504.1,132.3c1.1,0,2.1-.2,3-.7.9-.5,1.6-1.1,2.1-1.8s.9-1.6,1.2-2.5c.3-.9.4-1.9.4-2.9s-.2-2.7-.7-3.8-1.3-2.1-2.3-2.8c-1.1-.7-2.3-1.1-3.8-1.1s-2.1.2-3,.7c-.9.4-1.6,1-2.1,1.8-.5.7-.9,1.6-1.2,2.5s-.4,1.9-.4,2.9.1,2,.4,2.9c.3.9.7,1.7,1.2,2.5.5.7,1.3,1.3,2.1,1.8.9.4,1.9.7,3,.7Z"/>
      <path d="M551.5,139.3v-15.6l-5,11h-4.3l-5-11v15.6h-8.1v-29.7h8.9l6.4,14,6.4-14h8.9v29.7h-8.1Z"/>
      <path d="M571.2,139.3v-29.7h8.1v29.7h-8.1Z"/>
      <path d="M604.4,109.5c2.8,0,5.2.6,7.4,1.8s3.7,2.7,4.8,4.7l-6.2,4.4c-.3-.7-.6-1.3-1.1-1.8-.5-.5-1-.9-1.6-1.1s-1.1-.5-1.7-.6-1.1-.2-1.7-.2c-1.1,0-2.1.2-3,.7-.9.5-1.6,1.1-2.1,1.8-.5.8-.9,1.6-1.2,2.5-.3.9-.4,1.8-.4,2.8,0,2.2.6,4,1.9,5.5,1.2,1.5,2.9,2.3,4.9,2.3s1.6-.1,2.3-.3c.7-.2,1.4-.6,2.1-1.2.7-.6,1.2-1.3,1.5-2.1l6.7,4c-.6,1.4-1.5,2.6-2.9,3.7-1.4,1.1-2.9,1.9-4.6,2.4-1.7.5-3.4.8-5.1.8s-4.1-.4-6-1.3c-1.9-.9-3.5-2-4.8-3.5-1.3-1.4-2.3-3.1-3-4.9-.7-1.8-1.1-3.7-1.1-5.6s.4-3.6,1.1-5.4c.7-1.7,1.7-3.3,2.9-4.7,1.3-1.4,2.9-2.5,4.8-3.4,1.9-.9,4.1-1.3,6.4-1.3Z"/>
      <path d="M633,109.6h9.1l9.4,29.7h-8.3l-1.8-5.8h-7.9l-1.8,5.8h-8.3l9.5-29.7ZM640.2,128.1l-2.6-10.4-2.8,10.4h5.4Z"/>
    </g>
  </g>
</svg>